<svg id="Layer_0_Image" data-name="Layer 0 Image" xmlns="http://www.w3.org/2000/svg" viewBox="0 0 714.49 488.4"><defs><style>.cls-1{fill:#fff;}</style></defs><title>logo-provisoria-branca</title><path class="cls-1" d="M906.32,511.17a6.25,6.25,0,0,0-8.46,1.68,33.37,33.37,0,0,0-2.07,3.81c-8.87,15.73-17.3,31.73-26.81,47.07-4.74,7.65-11.32,14.21-17.37,21-1.79,2-4.64,3.06-7.54,4.88-2.43-8.65-1-16,1-23.62,8.79,1.15,14.12-3.93,18.7-10,7.53-9.94,12.09-21.35,14.87-33.37a47.55,47.55,0,0,0,1.19-16.4c-1.36-10.58-11-15.22-20.38-10.18a33,33,0,0,0-9.15,7.37c-7.4,8.56-11.61,18.93-14.39,29.67-2.51,9.68-7.65,17.87-12.43,26.35a18.17,18.17,0,0,1-2.1,2.34c.61-4.66,1.2-8.44,1.58-12.24.73-7.46,2.26-15-.43-22.35-2.18-6-7.82-8.42-13.36-5.31a32.91,32.91,0,0,0-7.89,6.48c-4.14,4.51-7.9,9.36-11.81,14.07a20.54,20.54,0,0,1,1.75-5.17c2.55-5.79,5.27-11.51,7.57-17.4a9.91,9.91,0,0,0-3.09-11.44,10.65,10.65,0,0,0-11.92-.55,14,14,0,0,0-6.73,9.36c-1.93,7.94-3.7,15.94-6.06,23.76-1.3,4.29-3.68,8.24-5.58,12.35.61-6.71-1.11-10.81-5.69-12.44s-9.81.9-12.51,6.44a22.72,22.72,0,0,0-1.67,5.63,127.85,127.85,0,0,1-12.4,35.33c-1.06,2-2.47,3.85-3.72,5.76a8.24,8.24,0,0,1-.32-4.24c2.35-14.52,7.83-27.94,15.23-40.5a118.83,118.83,0,0,1,12.52-16.74c2-2.28,5.08-3.64,7.82-5.16,4.81-2.66,7.56-6.6,7.63-12.07a9.75,9.75,0,0,0-5.65-9.32c-4.78-2.32-9.16-.72-12.73,2.66s-7.52,6.88-10.06,11.07c-6.08,10-11.1,20.67-17.16,30.69-8.45,14-17.45,27.62-26.21,41.4l-1.21-.65c1.54-5.85,2.79-11.8,4.68-17.53,3.31-10,7-19.87,10.54-29.82,1.72-4.89.31-9.67-3.49-12.38-3.62-2.58-9-2.28-13,.71-3.48,2.65-5,6.26-5.6,10.52-.86,6.53-.63,13.59-3.12,19.47-9.49,22.49-20.27,44.39-34.62,64.3-2.08,2.89-4.7,5.39-7.06,8.07l-1.41-.6c1-7,1.27-14.15,3.06-20.92,6.31-23.83,13-47.55,19.8-71.25,3.89-13.56,8.25-27,15.41-39.29.57-1,1.24-2.35,2.13-2.6,5.91-1.66,11.89-3.07,17.93-4.58,1,4.5,3.17,7.53,7.56,8.06s7.74-1.41,10.1-5a22.11,22.11,0,0,0,2.54-5.34c.8-2.44,2.37-3.43,4.78-4,17.06-4.15,34.08-8.43,51.11-12.67,18.06-4.49,36.13-8.94,54.18-13.47,7.15-1.8,11.51-9.14,9.56-15.83-1.73-5.92-7.41-8.12-14.91-5.79l-1.89.58Q778.28,457.45,729,473a7.39,7.39,0,0,1-4.75.15c-5.8-2.6-11.57-2-15.17,3.3-4.17,6.1-10.77,5.37-16.67,8.1,5.17-17.21,5.07-18.79-1.73-25.84,2.08-2,4-4.22,6.28-5.82,6.13-4.22,12.5-8.09,18.67-12.25a41.16,41.16,0,0,0,6.46-5.43c.55-.56,0-2.14,0-3.25-1.06,0-2.32-.27-3.15.19-7.12,3.89-14.12,8-21.24,11.88-3,1.65-6.2,3-9.31,4.48l-.64-1c3.39-3,6.73-6.08,10.2-9,2.79-2.35,5.52-6,8.67-6.47,7.26-1.1,12-6,17.46-9.67,4.51-3,8.47-6.91,12.68-10.41,8.87-7.37,18-14.35,28.13-20a23.16,23.16,0,0,0,5.71-5.14c.51-.58.32-2.33-.21-3.08-.32-.45-2-.3-2.9.09-2,.88-3.78,2.06-5.93,3.28L764,381,732.69,398l-1.21-.68c.32-1.21.25-3,1-3.54,5.21-3.5,10.52-6.91,16-10,5.83-3.32,6.92-5.83,3.73-10.44,1.87-1.19,3.76-2.35,5.6-3.58a108.52,108.52,0,0,0,9.32-6.51c.84-.7.6-2.7.86-4.11-1.22.05-2.68-.32-3.61.22-6.56,3.87-13,8-19.5,11.9a17.68,17.68,0,0,1-5,1.89c-1.74.41-3.62.24-5.36.67a35.55,35.55,0,0,0-4.82,1.93l-.74-1.27q12.57-8.78,25.15-17.54c2.88-2,6-3.68,8.67-5.92,1-.86,1.05-2.88,1.53-4.38-1-.24-2.32-1-3-.63-2.84,1.48-5.48,3.34-8.23,5-6.51,3.93-13.05,7.82-19.52,11.7l-3.34-5c.91-.71,1.81-1.37,2.67-2.09,5.09-4.3,12.72-5.59,15.21-13.06a5.92,5.92,0,0,1,3.27-3c3-1.14,3.6-3,2.56-6.78l-16.53,9.76c1.71-3.51,6.49-4.1,6.82-8.94-1.18.11-2.24-.1-2.92.31-6.59,4-13.1,8.13-19.66,12.17a9.27,9.27,0,0,1-2.26.69,9.57,9.57,0,0,1-.23-2.43c.25-1.54.71-3,1.08-4.56l-1.22-1-15.13,8.74a5.64,5.64,0,0,1,1.86-2.93c3.62-2.84,7.36-5.53,11-8.41.75-.6,1-1.78,1.55-2.69a11.33,11.33,0,0,0-3.28.12,49.42,49.42,0,0,0-5.09,2.34l-.68-.89c.75-.5,1.51-1,2.26-1.5,5.71-3.9,11.4-7.81,17.12-11.68,2.8-1.9,5.75-3.6,8.45-5.63.77-.58.93-2,1.37-3-.78-.12-1.79-.62-2.3-.31-6.52,4-12.91,8.18-19.47,12.1-3.45,2.06-7.18,3.67-10.78,5.48l-.74-1.16c2.21-1.49,4.65-2.74,6.55-4.55,1.24-1.18,1.71-3.18,2.52-4.81-1.59.19-3.18.4-4.77.57a13,13,0,0,1-1.88-.33c4.53-3.31,8.35-6.28,12.35-9,5.35-3.59,10.91-6.87,16.22-10.53.93-.64,1-2.47,1.52-3.75a13.6,13.6,0,0,0-3.64.75c-3.48,1.8-6.86,3.81-10.38,5.79l-1-4-30.76,18.25-.73-1a14.53,14.53,0,0,1,2.46-2.78c7.08-4.75,14.27-9.34,21.34-14.12a36.55,36.55,0,0,0,5.8-5c.5-.52.09-1.9.1-2.88-1,.07-2.09-.18-2.83.26-4.36,2.55-8.64,5.27-13.65,8.36.62-1.29,1.12-1.86,1.11-2.41,0-1.49-.29-3-.46-4.46a15,15,0,0,0-3.73,1c-7.73,4.52-15.17,9.6-23.16,13.57-4.69,2.33-8,8.52-14.75,6.07-.28-.1-.8.65-1.28.85-4.69,2-8.22,6.87-14.24,5.59-.51-.11-1.88,1.06-1.84,1.54.32,3.51-2.47,4.22-4.64,5.47s-4.4,2.35-6.54,3.63c-7.13,4.28-14.22,8.61-21.33,12.92a7.33,7.33,0,0,1,1.33-3.95c3.75-6.21,7.53-12.41,11.26-18.63,1.52-2.53,2-5.26-1-6.85-2.82-1.5-5.08.09-6.61,2.6-1.38,2.25-2.64,4.57-4,6.85-9.69,16.51-21.35,31.59-34,47,9.35-28.51,18.59-56.1,27.43-83.83,4.19-13.15,9.33-25.69,17.26-37.1a113.24,113.24,0,0,0,10-17.93c2.41-5.33,4.64-11.06,5.3-16.8,1.09-9.56-7.79-15.65-16.56-11.68-3.09,1.4-6.48,3.83-8,6.71-5.13,9.76-9.8,19.8-14,30-3.48,8.38-5.35,17.47-9.22,25.63Q578,297.56,562,328c-8.22,15.62-16.94,31-26.26,46-4.55,7.31-10.84,13.58-16.66,20-1.87,2.07-4.76,3.23-7.72,5.15-2.62-8.93-1.13-16.36,1.17-23.88A12.41,12.41,0,0,0,524,372.45a45.38,45.38,0,0,0,7.19-7.29c7.79-10.42,12.47-22.34,15.12-34.95a44,44,0,0,0,.58-15.23c-1.37-9.19-9.94-13.87-18.45-10.13a31.83,31.83,0,0,0-10.68,7.86c-8.32,9.4-12.2,21.12-15.84,32.89a89.45,89.45,0,0,1-3.53,8.4,5.75,5.75,0,0,1-.27-3c.33-3.75-.89-6.85-4.27-8.68s-7.27-1.52-9.9,1.25a19.49,19.49,0,0,0-5,8.61,150.7,150.7,0,0,1-12.07,35.48c-1.32,2.63-3,5.07-4.51,7.6a2.75,2.75,0,0,1-.72-2.24c3.55-21.41,11.86-40.72,25.89-57.33,2.54-3,6.24-5.18,9.71-7.22s6.26-4.77,7.43-8.81a11.09,11.09,0,0,0-3.51-11.79,10,10,0,0,0-11.87-.12,44.31,44.31,0,0,0-6.93,5.87c-8.91,9.19-14.14,20.58-18.88,32.23-2.84,7-9.13,10.74-16.58,9.79s-9.55-4.21-7.22-11.14c.46-1.37.82-2.79,1.36-4.13,3.31-8.29,6.19-16.81,10.11-24.8,5.81-11.83,12.83-23.07,18.45-35,3.57-7.55,5.93-15.76,8.1-23.87a10.59,10.59,0,0,0-5.55-12.05c-4.21-1.92-9-.61-12.72,3.72a23.42,23.42,0,0,0-4.17,6.2c-7,17.75-13.84,35.61-20.85,53.37-5,12.67-6.73,26.54-14.62,38.18-4.15,6.12-7.45,12.81-11.69,20.2.24-1.91.37-2.69.43-3.47.27-3.58-.86-6.58-4-8.46s-7-1.86-9.61.65c-2.42,2.33-4.82,5.5-5.52,8.67-2.82,12.83-6.63,25.25-12.74,36.9-1.17,2.23-2.64,4.31-4,6.46a7.79,7.79,0,0,1-.36-4.29,121.53,121.53,0,0,1,19.54-47.58c4.35-6.46,9.17-12.56,16.86-15.66,1.91-.77,3.55-2.78,4.76-4.58a11.27,11.27,0,0,0-1.47-14.81c-3.66-3.34-9.09-3.49-13.72.45-4.08,3.48-8.2,7.25-11.15,11.67-13.27,19.84-20.61,42.07-24.72,65.38a47.93,47.93,0,0,0-.14,15.68c1,6.3,6.56,8.46,12,5.14a24.64,24.64,0,0,0,6.63-6.11c3.42-4.5,6.4-9.33,9.61-14.1,1.56,3.3,2.42,7.41,7.11,7.47,5.57.08,6.68-4.74,9-8.38l-12,42L302.54,393c1.29-1.19,2.23-2.07,3.19-2.94,15.43-13.86,31.09-27.49,46.25-41.63,21-19.57,41.17-39.95,58.79-62.67,8-10.27,14.71-21.35,17.77-34.17,2.57-10.78,2.58-21.38-5.31-30.32-6.8-7.7-16-10.45-25.84-11.27-17-1.41-33.38,2.1-49.58,6.7-50.49,14.34-99.42,33.05-148,52.78-4.51,1.83-6.28,4-5.1,6.67,2.07,4.59,5.32,2.08,8,.95A764.72,764.72,0,0,1,288,247.6c31.12-8.88,62.64-15.27,95.24-13.55,5.94.31,11.84,2.23,17.64,3.83,3.07.85,4.32,3.42,4.41,6.76.2,7.51-2.44,14.28-5.33,20.92-8.19,18.79-19.58,35.57-32.8,51.15a608,608,0,0,1-72.93,72.66c-5.37,4.5-5.05,6.83,1.32,10q31.64,16,63.3,31.91L392.1,448c-.2,1.08-.29,1.86-.49,2.61-3.81,14.27-7.66,28.54-11.43,42.82C378,501.63,376,509.83,373.95,518c-.63,2.5,0,4.6,2.51,5.49s4.61-.33,5.83-2.74a22.14,22.14,0,0,0,1.16-2.94q3.81-11.24,7.58-22.49c4.55-13.47,9.1-26.95,13.78-40.8,1.63.79,2.92,1.39,4.19,2q11.17,5.56,22.34,11.13c2.78,1.38,5,.46,6.31-2.13s.33-4.55-2.34-5.79c-2.87-1.33-5.67-2.83-8.49-4.26l-19.24-9.77c9.06-25.5,18-50.6,27-75.65a5.08,5.08,0,0,1,3.29-2.63c6.35-1.33,12.77-2.35,19-3.46-1.16,4.72-2.64,10-3.74,15.41-1.49,7.36-3.27,14.78-1.18,22.31,1.57,5.66,6.23,7.89,11.35,5.07a25,25,0,0,0,7.35-6.43c3.46-4.43,6.39-9.27,8.89-13,2.45,2.11,4.69,5.53,7.56,6.18,5,1.14,6.72-3.74,8.51-7.45.83,5.21,1.13,10.36,2.54,15.19,2.63,9,10.53,12.42,18.69,7.77,5-2.82,10-6.41,13.4-10.86a448.57,448.57,0,0,0,26-36.85c7.46-12,13.53-24.9,20.23-37.39a26.16,26.16,0,0,1,1.53-2.33c-4.43,22.43-8.88,45.05-13.36,67.67-.46,2.31-.82,4.63,1.77,5.86s4.53.27,6.34-1.7c2-2.14,4.12-4.09,6.55-6.47-.94,2.59-1.94,4.6-2.28,6.71-.12.76,1.61,2.66,2.12,2.53,5.31-1.32,10.55-2.94,15.79-4.48l-19.48,18.42,1.1,1.76,4.63-1.74c2.75,4.47-.72,6.79-3.59,9.49-3.73,3.52-7.4,7.14-10.86,10.92-1.52,1.66-2.73,3.82-.22,6.49l17.39-16.87c-.17,2-1.15,3.42-1.73,5a3.07,3.07,0,0,0,.36,2.67,3.28,3.28,0,0,0,2.64.38,49.23,49.23,0,0,0,4.95-1.64c-3.92,4.51-8.17,8.34-12.33,12.28-2.75,2.61-5.46,5.28-8,8.12-.64.73-.41,2.21-.58,3.35a17,17,0,0,0,2.76-1,30.78,30.78,0,0,0,2.89-2.06l1.12,4.86c-7.71,8.15-7.71,8.15-5.13,10.46,1.87-1.78,3.75-3.6,5.66-5.39,6.72-6.31,13.42-12.64,20.19-18.89a10,10,0,0,1,2.72-1.27,61.34,61.34,0,0,1-9.81,10.26,25.84,25.84,0,0,0-8.05,10.76c-.66,1.78-1.51,3.49-2.28,5.23,1.69-.82,3.67-1.33,5-2.54,3.08-2.75,5.85-5.84,8-8,1.84,1.06,3.12,2.44,4.13,2.27,4.22-.72,8.37-1.9,13.42-3.13-10.43,11.05-22.6,19.3-31.51,30.67l1.3,1.35,31.43-29.46,1.45,1.2a17.85,17.85,0,0,1-1.86,2.8c-3.07,3.17-6.29,6.19-9.28,9.42-.61.66-.48,2-.69,3,1-.21,2.34-.08,3-.68,3.12-2.84,6-5.92,9.08-8.83,1.91-1.81,4-3.46,6-5.19l.77.86-3,2.89c-7.23,7-14.49,13.89-21.64,20.94-.71.7-.71,2.11-1,3.2,1.11-.35,2.51-.39,3.28-1.11,7.55-7,14.94-14.27,22.5-21.31,4.21-3.92,8.64-7.61,13-11.4l.5.55-3.41,5.24c6.38,4.52,8.78-4.69,14.85-3.78a27.43,27.43,0,0,1-2.88,4.22c-3.46,3.4-7.22,6.5-10.6,10-4,4.1-7.78,8.43-11.53,12.77-.54.62-.47,1.85-.45,2.79a2.06,2.06,0,0,0,1.62.49c3.7-2.15,7.33-4.42,11.14-6.75l1.36,2.54,4.53-2.52-6.06,9.25c10.87-6,16.93-17.38,28-22.73l2.55,3.17c-4.12,3.72-8.1,7.17-11.92,10.78-5.72,5.4-11.31,10.92-17,16.35-1.54,1.47-2.27,2.83,0,4.51.7-.58,1.32-1,1.88-1.57,7.49-7.15,14.83-14.47,22.52-21.4,3.46-3.12,8-4,13.06-3.86-2.14,6.08-4.41,11.56-5.94,17.24-1.21,4.5-3.09,7.33-8.07,8.2-4.27.75-6.43,4-5.71,7.26.91,4.13,3.9,4.83,7.64,3.82-5.33,28-15.78,53.35-33,76.56-1.9-6.19-3.74-11.82-5.34-17.52-1.93-6.84-1.51-12.84,5.6-17,3.72-2.16,6-5.86,4.93-10.41-1.08-4.77-5.27-6.42-9.33-7.59-7.45-2.15-15.72,2.64-19.69,11.09-2.72,5.79-3,11.94-2.69,18.22a10.33,10.33,0,0,1-1.24,5.52c-5.38,8.93-10.92,17.76-16.54,26.54-3.68,5.75-7.59,11.37-11.39,17a94.65,94.65,0,0,1,3.88-17.75c3.41-10.39,7.24-20.64,10.83-31a9.87,9.87,0,0,0-2.59-10.92c-3-3-6.81-3.41-10.69-2a12.89,12.89,0,0,0-8.47,9.7,27.45,27.45,0,0,0-.95,6.65c.18,8.2-4.09,14-10,18.82-3,2.4-6.39,4.23-9.6,6.32l-1.17-1.07c1.28-3.24,2.21-6.69,3.93-9.69,3.73-6.52,8-12.74,11.78-19.21,2.78-4.71,1.86-10.21-1.86-13.33-3.56-3-9-3-13.15.38a38.4,38.4,0,0,0-5.58,5.6c-8.59,10.48-17.09,21-25.58,31.51,3.73-10,7.55-20.22,11.34-30.43,2.43-6.54,5-13,7.18-19.68a9.29,9.29,0,0,0-14.83-9.85,20.49,20.49,0,0,0-5.09,6.86c-5.41,11.88-10.54,23.89-15.77,35.85-2.79,6.39-2.65,7,2.46,11.22-2.47,10.86-5.15,21.61-7.3,32.47-1.56,7.88-2.6,15.88-3.47,23.88a5.58,5.58,0,0,0,2.59,4.56c1.39.6,3.65-.31,5.32-1.05.92-.41,1.51-1.78,2.06-2.81,8.76-16.59,20.23-31.21,32.73-45.09a26.13,26.13,0,0,1,2.33-2c0,1.41,0,2.19,0,3,.32,7.21,4.41,10.75,11.18,8.59,4.65-1.48,8.87-4.4,13.19-6.84a23.9,23.9,0,0,0,3.66-3.18c-.79,9.14-1.75,17.92-2.19,26.73a27.5,27.5,0,0,0,1.47,10.08c1.77,5.13,7.17,6.25,11.17,2.55A27.44,27.44,0,0,0,573,623c6.83-10.52,13.57-21.09,20.36-31.63,3.06-4.74,6.16-9.45,9.33-14.3,3.4,6.62,6.42,13,10,19.15,1.82,3.14,1.73,5.37-.12,8.54q-9,15.34-17,31.2c-.79,1.55,0,4.92,1.29,6.18,1.1,1.06,4.36,1,6,.17a50.14,50.14,0,0,0,9.7-6.8c11.46-10,19.79-21.64,18.71-37.9a4.65,4.65,0,0,1,.73-2.56c3.59-5.78,7.26-11.52,11.31-17.91-.16,1.49-.22,2.24-.32,3-2,14.11-4.2,28.2-5.79,42.35a64.05,64.05,0,0,0,.52,16.54c.9,6,5.6,8,11,5.19a21,21,0,0,0,6-4.45c3.24-3.63,6.59-7.32,9-11.49C671,615.72,677.89,603,685,590.31c.38-.68.81-1.33,1.27-2.08,0,5.56-.29,10.85.1,16.08.27,3.73,1.5,7.46,5.87,8.5s6.91-1.77,9.1-4.91,4.27-6.35,6.37-9.56q5.47-8.39,10.88-16.8a9.78,9.78,0,0,1,.22,4c-.2,4.21-.57,8.44-.43,12.64.12,3.57,1.56,6.78,5.09,8.36s7,.29,9.47-2.17a91.9,91.9,0,0,0,8.65-10.22c2.07-2.72,3.74-5.74,5.24-8.08l7,8.61c-1.07,2.26-3,5.34-3.91,8.69a7.11,7.11,0,0,0,1.64,5.89c1.16,1.12,4,1.39,5.71.82s3.39-2.44,4.56-4.1c4.77-6.8,9-14,14.07-20.55,9.83-12.71,20.08-25.09,30.16-37.6a25.87,25.87,0,0,1,1.23,7.27c.69,7.08.9,14.27,2.37,21.18,1.42,6.68,7.63,8.08,12.68,3.33a87.1,87.1,0,0,0,6-6.79c.82,6,1.06,12.65,2.72,18.9,2.43,9.15,10.39,12.52,18.56,7.77a56.84,56.84,0,0,0,14.27-11.68c18-20.82,30.82-45,44-68.94C909.47,516.07,909.2,513.19,906.32,511.17Zm-49,20.61c.33,8.43-2.51,16.85-7.38,21C850.73,545.41,854.38,539.14,857.37,531.78ZM524.2,341.66c1,7.29-2.07,16.54-6.48,20.83l-1.46-.49Zm79.52,104.82-1.34-.74c.26-1,.19-2.35.83-3,4.06-3.88,8.27-7.61,12.47-11.34.33-.29.93-.27,1.4-.4l.47.74Zm7.32-56.9-.79-1.49,6.6-3.65.79,1.72Zm2.72-25.84c-1.9.54-4,.75-3.44,3.75.12.61-1,1.7-1.75,2.2-5.21,3.32-10.38,6.74-15.81,9.67-1.54.83-3.9.13-5.88.13l-.33-1.12c3.7-4.54,7.39-9.1,11.12-13.62A2,2,0,0,1,599,364c7.4.5,11.81-5.3,17.53-8.32,1.81-1,3.48-2.17,5.68-3.56C622.28,357.12,618.21,362.48,613.76,363.74Zm19.08-18.29-.93-1.33,7.53-5.17.72,1Z" transform="translate(-194.37 -202.98)"/><path class="cls-1" d="M589.52,643.88c-1.07.51-2.12,1.08-3.18,1.62-21.39,11.05-43.4,20.6-66.63,27.14C495.64,679.42,471.28,684,446.2,680c-38.4-6.08-58.11-31.28-56.51-69.21.87-20.63,7.35-39.9,16.47-58.24,16.2-32.62,38.29-60,70.57-78.17,9.76-5.48,20.22-9.31,31.53-9.62,15.46-.43,27.5,6.3,36.47,18.72,2,2.76,4.46,4.31,7.78,3.09s5.43-3.85,4.79-7.36c-1-5.65-1.89-11.58-4.29-16.7-8.19-17.47-27.49-26.23-48.24-23.18C486.52,442,470.41,449.5,455.59,460c-28.29,20.08-48.52,46.8-63,78-10.52,22.69-17.45,46.41-18,73.8.3,3.42.49,9,1.29,14.45,5,33.89,26.79,56.29,60.23,62.76,22.13,4.29,43.94,2.18,65.67-2.23,31.62-6.42,61.41-18.26,90.77-31.32a10.28,10.28,0,0,0,3.29-2.15c2.22-2.35,2.83-5.18,1-8S592.34,642.53,589.52,643.88Z" transform="translate(-194.37 -202.98)"/><path class="cls-1" d="M262.41,274.2c-5,2.48-7.42,6.77-8.61,12.1q-12.52,56.17-25.19,112.31c-3.9,17.37-7.74,34.75-11.66,52.11-.6,2.67-.23,4.87,2.54,5.79s4.57-.56,5.79-2.9a16.63,16.63,0,0,0,.91-2.61Q252,370.22,277.7,289.43c.52-1.62.82-3.31,1-4C278.89,275.62,270.36,270.24,262.41,274.2Z" transform="translate(-194.37 -202.98)"/><path class="cls-1" d="M580.76,520.26a9.66,9.66,0,0,0,11.3-4.34,90.12,90.12,0,0,0,6.28-14.46c1.32-3.92-.19-7.6-3.26-10.36s-6.51-2.75-10-1.51c-4.54,1.59-7.66,4.79-8.6,9.54-.77,3.86-1,7.84-1.31,10.73C574.87,515.64,576.85,518.89,580.76,520.26Z" transform="translate(-194.37 -202.98)"/><path class="cls-1" d="M626.62,460l-.86-.92-8.84,8.44.94,1Z" transform="translate(-194.37 -202.98)"/><path d="M657.2,396.92A64.09,64.09,0,0,1,644.4,371c-3.41-15.28,4.42-29.87,19.06-35.16,6.13-2.22,12.25-2.75,17.55,1.81s5.21,10.82,4,16.87c-2.4,11.56-8.62,21.35-15.35,30.82-1.22,1.72-2.55,3.36-3.82,5-3.81,5.05-3.83,5.07-.12,10.18,1.14,1.57,2.45,3,4,4.95,2.51-3.5,4.82-6.64,7-9.84,1.38-2,3-3.79,5.48-2.17s2.06,4,.7,6.29c-2.38,3.93-4.83,7.82-7.47,12.1,6.36,7,14.3,12.72,20.43,20.14l-1.14,1.2-21.11-19c-2.48,3-4.67,6.13-7.27,8.83q-6.43,6.69-13.32,12.92a19.13,19.13,0,0,1-5.78,3.31c-4,1.6-7-.06-7-4.42a22.27,22.27,0,0,1,2-9.19C646.83,416.22,651.88,407.06,657.2,396.92Zm4-3.2c.79-1.09,1.51-2,2.15-3,6.35-9.73,12-19.75,13.65-31.53.83-6-2-12.38-6.82-14.85a13.93,13.93,0,0,0-15.76,2.24c-4.4,4.14-5.45,9.55-5.19,15.18C649.76,373.57,654.76,383.79,661.2,393.72Zm-2.85,4.72c-4.82,9.08-9.41,17.43-13.63,26-.85,1.71-1.36,5.65-.32,6.23,1.81,1,4.45-.95,5.78-2.3,6.16-6.24,12-12.8,18-19.27Z" transform="translate(-194.37 -202.98)"/></svg>